<?xml version="1.0" encoding="utf-8"?>
<!-- Generator: Adobe Illustrator 22.0.1, SVG Export Plug-In . SVG Version: 6.00 Build 0)  -->
<svg version="1.1" id="Capa_1" xmlns="http://www.w3.org/2000/svg" xmlns:xlink="http://www.w3.org/1999/xlink" x="0px" y="0px"
	 viewBox="0 0 841.9 595.3" style="enable-background:new 0 0 841.9 595.3;" xml:space="preserve">
<style type="text/css">
	.st0{fill:#D1C997;}
	.st1{opacity:0.12;fill:url(#SVGID_1_);}
	.st2{opacity:0.42;fill:url(#SVGID_2_);}
	.st3{opacity:0.42;fill:url(#SVGID_3_);}
	.st4{opacity:0.42;fill:url(#SVGID_4_);}
	.st5{opacity:0.42;fill:url(#SVGID_5_);}
	.st6{fill:none;stroke:#FFFFFF;stroke-width:3;stroke-miterlimit:10;}
	.st7{fill:#FFFFFF;}
	.st8{fill:url(#SVGID_6_);}
	.st9{fill:#9D9D9C;}
	.st10{fill:#EDEDED;}
</style>
<rect class="st0" width="841.9" height="594.8"/>
<g>
	<linearGradient id="SVGID_1_" gradientUnits="userSpaceOnUse" x1="111.9479" y1="375.7026" x2="434.786" y2="375.7026">
		<stop  offset="0.2102" style="stop-color:#706F6F;stop-opacity:0"/>
		<stop  offset="0.8328" style="stop-color:#000000"/>
	</linearGradient>
	<path class="st1" d="M133.6,363.7h301.2v24H133.6c0,0-21.7-2.8-21.7-12.9C111.9,365.3,133.6,363.7,133.6,363.7z"/>
	<linearGradient id="SVGID_2_" gradientUnits="userSpaceOnUse" x1="221.095" y1="385.7698" x2="543.933" y2="385.7698">
		<stop  offset="0.7259" style="stop-color:#706F6F;stop-opacity:0"/>
		<stop  offset="1" style="stop-color:#3C3C3B"/>
	</linearGradient>
	<path class="st2" d="M242.8,384.6h301.2v2.3H242.8c0,0-21.7-0.3-21.7-1.2C221.1,384.8,242.8,384.6,242.8,384.6z"/>
	<linearGradient id="SVGID_3_" gradientUnits="userSpaceOnUse" x1="292.135" y1="379.6168" x2="614.9731" y2="379.6168">
		<stop  offset="0.7259" style="stop-color:#706F6F;stop-opacity:0"/>
		<stop  offset="1" style="stop-color:#3C3C3B"/>
	</linearGradient>
	<path class="st3" d="M313.8,378.5H615v2.3H313.8c0,0-21.7-0.3-21.7-1.2C292.1,378.6,313.8,378.5,313.8,378.5z"/>
	<linearGradient id="SVGID_4_" gradientUnits="userSpaceOnUse" x1="247.1057" y1="329.7768" x2="569.9438" y2="329.7768">
		<stop  offset="0.7259" style="stop-color:#706F6F;stop-opacity:0"/>
		<stop  offset="1" style="stop-color:#3C3C3B"/>
	</linearGradient>
	<path class="st4" d="M268.8,328.6h301.2v2.3H268.8c0,0-21.7-0.3-21.7-1.2C247.1,328.8,268.8,328.6,268.8,328.6z"/>
	<linearGradient id="SVGID_5_" gradientUnits="userSpaceOnUse" x1="199.3971" y1="334.019" x2="522.2352" y2="334.019">
		<stop  offset="0.7259" style="stop-color:#706F6F;stop-opacity:0"/>
		<stop  offset="1" style="stop-color:#3C3C3B"/>
	</linearGradient>
	<path class="st5" d="M221.1,332.9h301.2v2.3H221.1c0,0-21.7-0.3-21.7-1.2C199.4,333,221.1,332.9,221.1,332.9z"/>
	<path class="st6" d="M463.9,285.6c34.1,42,59.9,100.5,78.5,100c22.7-0.5,41.1-39.3,69.2-26.9c14.3,6.3,33.2-5.2,32.2,5
		c-1,10.5-22.5,18.1-41.7,14.3c-22.6-4.5-30.8-5.9-49.3-9.3c-7.5-1.4-41.5,11.4-67.1,14c-12.1,1.2-17.2-31.9-24-24.4"/>
	<path class="st6" d="M431.7,229.8c34.1,42,72.5,92.9,91,92.4c22.7-0.5,14.1-5.9,42.3,6.5c14.3,6.3,47.6-31,46.6-20.7
		c-1,10.5-22.5,18.1-41.7,14.3c-22.6-4.5-34.8,14.5-53.3,11c-7.5-1.4-37.5-8.9-63.1-6.4c-12.1,1.2-17.2-31.9-24-24.4"/>
	<path class="st7" d="M429.1,207.6c0,0,6.4,4.3-44.8,31.6S352.7,336,352.7,336s14,51.5,78.9,51.6c31.2,0.1,32.4-16.6,32.4-16.6
		S490.1,265.6,429.1,207.6z"/>
	<linearGradient id="SVGID_6_" gradientUnits="userSpaceOnUse" x1="394.4218" y1="228.8334" x2="431.973" y2="282.4621">
		<stop  offset="0" style="stop-color:#878787"/>
		<stop  offset="9.679487e-02" style="stop-color:#EDEDED"/>
		<stop  offset="0.5743" style="stop-color:#878787"/>
	</linearGradient>
	<path class="st8" d="M387.6,237.3c7.9,2.4,19.6-5.9,30.3,40c4.3,18.4,19.8,5.4,11.1-9.8c-11.3-19.6-15.6-46-33.8-37.8
		C386,233.9,383.4,236,387.6,237.3z"/>
	<rect x="458.7" y="322.4" class="st9" width="3.1" height="8.6"/>
	<rect x="458.7" y="352.6" class="st9" width="3.1" height="8.6"/>
	<g>
		<path class="st10" d="M349,300.8c0,3.3,0.9,6.4,2.4,9.1c1.5,2.7,3.6,5,6.1,6.9c4.9,3.8,10.8,6.2,16.8,8c6.1,1.8,12.3,3,18.7,3.9
			c6.4,0.9,12.8,1.6,19.3,2.5c-6.5,0.8-13,1-19.6,0.6c-6.5-0.4-13.1-1.3-19.5-3.2c-6.4-1.9-12.7-4.8-17.7-9.4
			c-1.2-1.2-2.4-2.5-3.4-3.9c-1-1.4-1.8-2.9-2.4-4.5C348.5,307.4,348.1,303.9,349,300.8z"/>
	</g>
	<g>
		<path class="st10" d="M349.6,316.4c0,3.3,0.9,6.4,2.4,9.1c1.5,2.7,3.6,5,6.1,6.9c4.9,3.8,10.8,6.2,16.8,8c6.1,1.8,12.3,3,18.7,3.9
			c6.4,0.9,12.8,1.6,19.3,2.5c-6.5,0.8-13,1-19.6,0.6c-6.5-0.4-13.1-1.3-19.5-3.2c-6.3-1.9-12.7-4.8-17.7-9.4
			c-1.2-1.2-2.4-2.5-3.4-3.9c-1-1.4-1.8-2.9-2.4-4.5C349.1,323.1,348.7,319.6,349.6,316.4z"/>
	</g>
	<g>
		<path class="st10" d="M352.2,331.9c0,3.3,0.9,6.4,2.4,9.1c1.5,2.7,3.6,5,6.1,6.9c4.9,3.8,10.8,6.2,16.8,8c6.1,1.8,12.3,3,18.7,3.9
			c6.4,0.9,12.8,1.6,19.3,2.5c-6.5,0.8-13,1-19.6,0.6c-6.5-0.4-13.1-1.3-19.5-3.2c-6.4-1.9-12.7-4.8-17.7-9.4
			c-1.2-1.2-2.4-2.5-3.4-3.9c-1-1.4-1.8-2.9-2.4-4.5C351.7,338.6,351.3,335,352.2,331.9z"/>
	</g>
</g>
</svg>
